<mxfile host="app.diagrams.net" modified="2023-02-09T07:04:37.136Z" agent="5.0 (Windows NT 10.0; Win64; x64) AppleWebKit/537.36 (KHTML, like Gecko) Chrome/109.0.0.0 Safari/537.36 Edg/109.0.1518.78" etag="BqKD1pzojowbgT8tDuCf" version="20.8.15" type="github">
  <diagram name="第 1 页" id="PKyztCgwDe3GpNEwCawm">
    <mxGraphModel dx="1290" dy="581" grid="1" gridSize="10" guides="1" tooltips="1" connect="1" arrows="1" fold="1" page="1" pageScale="1" pageWidth="827" pageHeight="1169" math="0" shadow="0">
      <root>
        <mxCell id="0" />
        <mxCell id="1" parent="0" />
        <mxCell id="Ekd7SgaX7OzpnDu7vkai-6" style="edgeStyle=orthogonalEdgeStyle;rounded=0;orthogonalLoop=1;jettySize=auto;html=1;entryX=0.5;entryY=0;entryDx=0;entryDy=0;fontSize=12;" edge="1" parent="1" source="Ekd7SgaX7OzpnDu7vkai-1" target="Ekd7SgaX7OzpnDu7vkai-4">
          <mxGeometry relative="1" as="geometry" />
        </mxCell>
        <mxCell id="Ekd7SgaX7OzpnDu7vkai-1" value="开始" style="rounded=1;whiteSpace=wrap;html=1;fillColor=#FF9670;" vertex="1" parent="1">
          <mxGeometry x="40" y="110" width="120" height="60" as="geometry" />
        </mxCell>
        <mxCell id="Ekd7SgaX7OzpnDu7vkai-2" value="&lt;font style=&quot;font-size: 36px;&quot;&gt;算法整体流程&lt;/font&gt;" style="text;html=1;align=center;verticalAlign=middle;resizable=0;points=[];autosize=1;strokeColor=none;fillColor=none;" vertex="1" parent="1">
          <mxGeometry x="30" y="25" width="240" height="60" as="geometry" />
        </mxCell>
        <mxCell id="Ekd7SgaX7OzpnDu7vkai-9" value="" style="edgeStyle=orthogonalEdgeStyle;rounded=0;orthogonalLoop=1;jettySize=auto;html=1;fontSize=12;" edge="1" parent="1" source="Ekd7SgaX7OzpnDu7vkai-4" target="Ekd7SgaX7OzpnDu7vkai-7">
          <mxGeometry relative="1" as="geometry" />
        </mxCell>
        <mxCell id="Ekd7SgaX7OzpnDu7vkai-4" value="&lt;font style=&quot;font-size: 12px;&quot;&gt;输入焊缝图像&lt;/font&gt;" style="shape=parallelogram;perimeter=parallelogramPerimeter;whiteSpace=wrap;html=1;fixedSize=1;fontSize=36;fillColor=#FFFFFF;" vertex="1" parent="1">
          <mxGeometry x="40" y="230" width="120" height="60" as="geometry" />
        </mxCell>
        <mxCell id="Ekd7SgaX7OzpnDu7vkai-11" value="" style="edgeStyle=orthogonalEdgeStyle;rounded=0;orthogonalLoop=1;jettySize=auto;html=1;fontSize=12;" edge="1" parent="1" source="Ekd7SgaX7OzpnDu7vkai-7" target="Ekd7SgaX7OzpnDu7vkai-10">
          <mxGeometry relative="1" as="geometry" />
        </mxCell>
        <mxCell id="Ekd7SgaX7OzpnDu7vkai-7" value="缩小图像" style="rounded=0;whiteSpace=wrap;html=1;fontSize=12;fillColor=#FFFFFF;" vertex="1" parent="1">
          <mxGeometry x="40" y="350" width="120" height="60" as="geometry" />
        </mxCell>
        <mxCell id="Ekd7SgaX7OzpnDu7vkai-13" value="" style="edgeStyle=orthogonalEdgeStyle;rounded=0;orthogonalLoop=1;jettySize=auto;html=1;fontSize=12;" edge="1" parent="1" source="Ekd7SgaX7OzpnDu7vkai-10" target="Ekd7SgaX7OzpnDu7vkai-12">
          <mxGeometry relative="1" as="geometry" />
        </mxCell>
        <mxCell id="Ekd7SgaX7OzpnDu7vkai-10" value="小图中形态学过滤飞溅和反光" style="rounded=0;whiteSpace=wrap;html=1;fontSize=12;fillColor=#FFFFFF;" vertex="1" parent="1">
          <mxGeometry x="40" y="470" width="120" height="60" as="geometry" />
        </mxCell>
        <mxCell id="Ekd7SgaX7OzpnDu7vkai-15" value="" style="edgeStyle=orthogonalEdgeStyle;rounded=0;orthogonalLoop=1;jettySize=auto;html=1;fontSize=12;" edge="1" parent="1" source="Ekd7SgaX7OzpnDu7vkai-12" target="Ekd7SgaX7OzpnDu7vkai-14">
          <mxGeometry relative="1" as="geometry" />
        </mxCell>
        <mxCell id="Ekd7SgaX7OzpnDu7vkai-12" value="小图中提取出激光研模" style="rounded=0;whiteSpace=wrap;html=1;fontSize=12;fillColor=#FFFFFF;" vertex="1" parent="1">
          <mxGeometry x="40" y="600" width="120" height="60" as="geometry" />
        </mxCell>
        <mxCell id="Ekd7SgaX7OzpnDu7vkai-17" value="" style="edgeStyle=orthogonalEdgeStyle;rounded=0;orthogonalLoop=1;jettySize=auto;html=1;fontSize=12;" edge="1" parent="1" source="Ekd7SgaX7OzpnDu7vkai-14" target="Ekd7SgaX7OzpnDu7vkai-16">
          <mxGeometry relative="1" as="geometry" />
        </mxCell>
        <mxCell id="Ekd7SgaX7OzpnDu7vkai-14" value="原图中用小图激光研模提取激光轮廓质心" style="rounded=0;whiteSpace=wrap;html=1;fontSize=12;fillColor=#FFFFFF;" vertex="1" parent="1">
          <mxGeometry x="40" y="730" width="120" height="60" as="geometry" />
        </mxCell>
        <mxCell id="Ekd7SgaX7OzpnDu7vkai-19" value="" style="edgeStyle=orthogonalEdgeStyle;rounded=0;orthogonalLoop=1;jettySize=auto;html=1;fontSize=12;" edge="1" parent="1" source="Ekd7SgaX7OzpnDu7vkai-16" target="Ekd7SgaX7OzpnDu7vkai-18">
          <mxGeometry relative="1" as="geometry" />
        </mxCell>
        <mxCell id="Ekd7SgaX7OzpnDu7vkai-16" value="把激光轮廓质心分为底板和侧板部分" style="rounded=0;whiteSpace=wrap;html=1;fontSize=12;fillColor=#FFFFFF;" vertex="1" parent="1">
          <mxGeometry x="40" y="860" width="120" height="60" as="geometry" />
        </mxCell>
        <mxCell id="Ekd7SgaX7OzpnDu7vkai-22" value="" style="edgeStyle=orthogonalEdgeStyle;rounded=0;orthogonalLoop=1;jettySize=auto;html=1;fontSize=12;" edge="1" parent="1" source="Ekd7SgaX7OzpnDu7vkai-18" target="Ekd7SgaX7OzpnDu7vkai-21">
          <mxGeometry relative="1" as="geometry" />
        </mxCell>
        <mxCell id="Ekd7SgaX7OzpnDu7vkai-18" value="求出底板和侧板轮廓交点" style="rounded=0;whiteSpace=wrap;html=1;fontSize=12;fillColor=#FFFFFF;" vertex="1" parent="1">
          <mxGeometry x="40" y="990" width="120" height="60" as="geometry" />
        </mxCell>
        <mxCell id="Ekd7SgaX7OzpnDu7vkai-26" value="" style="edgeStyle=orthogonalEdgeStyle;rounded=0;orthogonalLoop=1;jettySize=auto;html=1;fontSize=12;" edge="1" parent="1" source="Ekd7SgaX7OzpnDu7vkai-21" target="Ekd7SgaX7OzpnDu7vkai-24">
          <mxGeometry relative="1" as="geometry" />
        </mxCell>
        <mxCell id="Ekd7SgaX7OzpnDu7vkai-21" value="跟据交点判断焊缝归属的三种情况" style="rounded=0;whiteSpace=wrap;html=1;fontSize=12;fillColor=#FFFFFF;" vertex="1" parent="1">
          <mxGeometry x="250" y="990" width="120" height="60" as="geometry" />
        </mxCell>
        <mxCell id="Ekd7SgaX7OzpnDu7vkai-28" value="" style="edgeStyle=orthogonalEdgeStyle;rounded=0;orthogonalLoop=1;jettySize=auto;html=1;fontSize=12;" edge="1" parent="1" source="Ekd7SgaX7OzpnDu7vkai-24" target="Ekd7SgaX7OzpnDu7vkai-27">
          <mxGeometry relative="1" as="geometry" />
        </mxCell>
        <mxCell id="Ekd7SgaX7OzpnDu7vkai-24" value="跟据拼缝、咬边、焊点三种不同的情况选择不同方法求焊缝坐标" style="rounded=0;whiteSpace=wrap;html=1;fontSize=12;fillColor=#FFFFFF;" vertex="1" parent="1">
          <mxGeometry x="250" y="860" width="120" height="60" as="geometry" />
        </mxCell>
        <mxCell id="Ekd7SgaX7OzpnDu7vkai-30" value="" style="edgeStyle=orthogonalEdgeStyle;rounded=0;orthogonalLoop=1;jettySize=auto;html=1;fontSize=12;" edge="1" parent="1" source="Ekd7SgaX7OzpnDu7vkai-27" target="Ekd7SgaX7OzpnDu7vkai-29">
          <mxGeometry relative="1" as="geometry" />
        </mxCell>
        <mxCell id="Ekd7SgaX7OzpnDu7vkai-27" value="&lt;font style=&quot;font-size: 12px;&quot;&gt;输出焊缝坐标&lt;/font&gt;" style="shape=parallelogram;perimeter=parallelogramPerimeter;whiteSpace=wrap;html=1;fixedSize=1;fontSize=36;fillColor=#FFFFFF;" vertex="1" parent="1">
          <mxGeometry x="250" y="730" width="120" height="60" as="geometry" />
        </mxCell>
        <mxCell id="Ekd7SgaX7OzpnDu7vkai-29" value="结束" style="rounded=1;whiteSpace=wrap;html=1;fillColor=#FF9670;" vertex="1" parent="1">
          <mxGeometry x="250" y="600" width="120" height="60" as="geometry" />
        </mxCell>
      </root>
    </mxGraphModel>
  </diagram>
</mxfile>
